<svg xmlns="http://www.w3.org/2000/svg" viewBox="0 0 36 36" xmlns:v="https://vecta.io/nano"><path fill="#99aab5" d="M36 34a2 2 0 0 1-2 2H2a2 2 0 0 1-2-2V18a2 2 0 0 1 2-2h32a2 2 0 0 1 2 2z"/><path d="M5.5 25a1 1 0 0 1-1 1h-1a1 1 0 0 1-1-1v-1a1 1 0 0 1 1-1h1a1 1 0 0 1 1 1zm4 0a1 1 0 0 1-1 1h-1a1 1 0 0 1-1-1v-1a1 1 0 0 1 1-1h1a1 1 0 0 1 1 1zm4 0a1 1 0 0 1-1 1h-1a1 1 0 0 1-1-1v-1a1 1 0 0 1 1-1h1a1 1 0 0 1 1 1zm4 0a1 1 0 0 1-1 1h-1a1 1 0 0 1-1-1v-1a1 1 0 0 1 1-1h1a1 1 0 0 1 1 1zm4 0a1 1 0 0 1-1 1h-1a1 1 0 0 1-1-1v-1a1 1 0 0 1 1-1h1a1 1 0 0 1 1 1zm4 0a1 1 0 0 1-1 1h-1a1 1 0 0 1-1-1v-1a1 1 0 0 1 1-1h1a1 1 0 0 1 1 1zm4 0a1 1 0 0 1-1 1h-1a1 1 0 0 1-1-1v-1a1 1 0 0 1 1-1h1a1 1 0 0 1 1 1zm4 0a1 1 0 0 1-1 1h-1a1 1 0 0 1-1-1v-1a1 1 0 0 1 1-1h1a1 1 0 0 1 1 1zm-26 4a1 1 0 0 1-1 1h-1a1 1 0 0 1-1-1v-1a1 1 0 0 1 1-1h1a1 1 0 0 1 1 1zm4 0a1 1 0 0 1-1 1h-1a1 1 0 0 1-1-1v-1a1 1 0 0 1 1-1h1a1 1 0 0 1 1 1zm4 0a1 1 0 0 1-1 1h-1a1 1 0 0 1-1-1v-1a1 1 0 0 1 1-1h1a1 1 0 0 1 1 1zm4 0a1 1 0 0 1-1 1h-1a1 1 0 0 1-1-1v-1a1 1 0 0 1 1-1h1a1 1 0 0 1 1 1zm4 0a1 1 0 0 1-1 1h-1a1 1 0 0 1-1-1v-1a1 1 0 0 1 1-1h1a1 1 0 0 1 1 1zm4 0a1 1 0 0 1-1 1h-1a1 1 0 0 1-1-1v-1a1 1 0 0 1 1-1h1a1 1 0 0 1 1 1zm4 0a1 1 0 0 1-1 1h-1a1 1 0 0 1-1-1v-1a1 1 0 0 1 1-1h1a1 1 0 0 1 1 1zM10 33a1 1 0 0 1-1 1H7a1 1 0 0 1-1-1v-1a1 1 0 0 1 1-1h2a1 1 0 0 1 1 1zm20 0a1 1 0 0 1-1 1h-2a1 1 0 0 1-1-1v-1a1 1 0 0 1 1-1h2a1 1 0 0 1 1 1zm-5 0a1 1 0 0 1-1 1H12a1 1 0 0 1-1-1v-1a1 1 0 0 1 1-1h12a1 1 0 0 1 1 1zM5.5 19.083a1 1 0 0 1-1 1h-1a1 1 0 1 1 0-2h1a1 1 0 0 1 1 1zm4 0a1 1 0 0 1-1 1h-1a1 1 0 1 1 0-2h1a1 1 0 0 1 1 1zm4 0a1 1 0 0 1-1 1h-1a1 1 0 1 1 0-2h1a1 1 0 0 1 1 1zm4 0a1 1 0 0 1-1 1h-1a1 1 0 1 1 0-2h1a1 1 0 0 1 1 1zm4 0a1 1 0 0 1-1 1h-1a1 1 0 1 1 0-2h1a1 1 0 0 1 1 1zm4 0a1 1 0 0 1-1 1h-1a1 1 0 1 1 0-2h1a1 1 0 0 1 1 1zm4 0a1 1 0 0 1-1 1h-1a1 1 0 1 1 0-2h1a1 1 0 0 1 1 1zm4 0a1 1 0 0 1-1 1h-1a1 1 0 1 1 0-2h1a1 1 0 0 1 1 1z" fill="#292f33"/><g transform="matrix(.70835 0 0 .70835 5.249704 0)"><circle fill="#dd2e44" cx="18" cy="18" r="18"/><circle fill="#fff" cx="18" cy="18" r="13.5"/><circle fill="#dd2e44" cx="18" cy="18" r="10"/><circle fill="#fff" cx="18" cy="18" r="6"/><circle fill="#dd2e44" cx="18" cy="18" r="3"/><path opacity=".2" d="M18.24 18.282l13.144 11.754s-2.647 3.376-7.89 5.109L17.579 18.42z"/><path fill="#ffac33" d="M18.294 19a.99.99 0 0 1-.704-.292c-.389-.389-.389-1.018 0-1.407l.563-.563c.389-.389 1.018-.389 1.408 0s.388 1.018 0 1.407l-.564.563c-.194.195-.448.292-.703.292z"/><path fill="#55acee" d="M24.016 6.981c-.403 2.079 0 4.691 0 4.691l7.054-7.388c.291-1.454-.528-3.932-1.718-4.238s-4.079.803-5.336 6.935zm5.003 5.003c-2.079.403-4.691 0-4.691 0l7.388-7.054c1.454-.291 3.932.528 4.238 1.718s-.803 4.079-6.935 5.336z"/><path fill="#3a87c2" d="M32.798 4.485L21.176 17.587c-.362.362-1.673.882-2.51.046s-.419-2.08-.057-2.443L31.815 3.501s.676-.635 1.159-.152-.176 1.136-.176 1.136z"/></g></svg>